<svg width="89" height="89" viewBox="0 0 89 89" fill="none" xmlns="http://www.w3.org/2000/svg">
<path d="M25.9583 11.125H14.8333C12.7853 11.125 11.125 12.7853 11.125 14.8333V25.9583C11.125 28.0064 12.7853 29.6667 14.8333 29.6667H25.9583C28.0064 29.6667 29.6667 28.0064 29.6667 25.9583V14.8333C29.6667 12.7853 28.0064 11.125 25.9583 11.125Z" stroke="#897053" stroke-width="7" stroke-linecap="round" stroke-linejoin="round"/>
<path d="M74.1667 11.125H63.0417C60.9936 11.125 59.3333 12.7853 59.3333 14.8333V25.9583C59.3333 28.0064 60.9936 29.6667 63.0417 29.6667H74.1667C76.2147 29.6667 77.875 28.0064 77.875 25.9583V14.8333C77.875 12.7853 76.2147 11.125 74.1667 11.125Z" stroke="#897053" stroke-width="7" stroke-linecap="round" stroke-linejoin="round"/>
<path d="M25.9583 59.3333H14.8333C12.7853 59.3333 11.125 60.9936 11.125 63.0417V74.1667C11.125 76.2147 12.7853 77.875 14.8333 77.875H25.9583C28.0064 77.875 29.6667 76.2147 29.6667 74.1667V63.0417C29.6667 60.9936 28.0064 59.3333 25.9583 59.3333Z" stroke="#897053" stroke-width="7" stroke-linecap="round" stroke-linejoin="round"/>
<path d="M77.875 59.3333H66.75C64.783 59.3333 62.8965 60.1147 61.5056 61.5056C60.1147 62.8965 59.3333 64.783 59.3333 66.75V77.875" stroke="#897053" stroke-width="7" stroke-linecap="round" stroke-linejoin="round"/>
<path d="M77.875 77.875V77.9117" stroke="#897053" stroke-width="7" stroke-linecap="round" stroke-linejoin="round"/>
<path d="M44.5 25.9583V37.0833C44.5 39.0504 43.7186 40.9368 42.3277 42.3277C40.9368 43.7186 39.0504 44.5 37.0833 44.5H25.9583" stroke="#897053" stroke-width="7" stroke-linecap="round" stroke-linejoin="round"/>
<path d="M11.125 44.5H11.1617" stroke="#897053" stroke-width="7" stroke-linecap="round" stroke-linejoin="round"/>
<path d="M44.5 11.125H44.5367" stroke="#897053" stroke-width="7" stroke-linecap="round" stroke-linejoin="round"/>
<path d="M44.5 59.3333V59.37" stroke="#897053" stroke-width="7" stroke-linecap="round" stroke-linejoin="round"/>
<path d="M59.3333 44.5H63.0417" stroke="#897053" stroke-width="7" stroke-linecap="round" stroke-linejoin="round"/>
<path d="M77.875 44.5V44.5367" stroke="#897053" stroke-width="7" stroke-linecap="round" stroke-linejoin="round"/>
<path d="M44.5 77.875V74.1667" stroke="#897053" stroke-width="7" stroke-linecap="round" stroke-linejoin="round"/>
</svg>
