<svg width="539" height="107" viewBox="0 0 539 107" fill="none" xmlns="http://www.w3.org/2000/svg">
<g clip-path="url(#clip0_12_2)">
<g clip-path="url(#clip1_12_2)">
<path d="M534.5 14H535.1L536.1 15.6H536.8L535.8 13.9C536.3 13.8 536.6 13.3 536.6 12.8C536.6 12.1 536.1 11.6 535.4 11.6H533.9V15.6H534.5V14ZM534.5 12.1H535.4C535.7 12.1 536 12.4 536 12.8C536 13.2 535.7 13.5 535.4 13.5H534.5V12.1Z" fill="#897053"/>
<path d="M535.2 17.6C537.4 17.6 539.1 15.8 539.1 13.7C539.1 11.6 537.3 9.79999 535.2 9.79999C533 9.79999 531.3 11.6 531.3 13.7C531.3 15.8 533 17.6 535.2 17.6ZM535.2 10.2C537.1 10.2 538.6 11.7 538.6 13.6C538.6 15.5 537.1 17 535.2 17C533.3 17 531.8 15.5 531.8 13.6C531.8 11.7 533.3 10.2 535.2 10.2Z" fill="#897053"/>
<path d="M224.9 56.4C224.9 29.2 211.3 7.2 194.6 7.2C177.9 7.2 164.3 29.2 164.3 56.4C164.3 83.6 177.9 105.6 194.6 105.6C211.3 105.6 224.9 83.6 224.9 56.4ZM201.6 102.1C193.4 103.4 183.7 83.9 179.8 58.7C175.9 33.5 179.4 12 187.5 10.8C195.7 9.5 205.4 29 209.3 54.2C213.3 79.4 209.8 100.8 201.6 102.1Z" fill="#897053"/>
<path d="M508.2 7.2C491.5 7.2 477.9 29.2 477.9 56.4C477.9 83.6 491.5 105.6 508.2 105.6C524.9 105.6 538.5 83.6 538.5 56.4C538.5 29.2 524.9 7.2 508.2 7.2ZM515.2 102.1C507 103.4 497.3 83.9 493.4 58.7C489.5 33.5 493 12 501.1 10.8C509.3 9.5 519 29 522.9 54.2C526.8 79.4 523.3 100.8 515.2 102.1Z" fill="#897053"/>
<path d="M159.1 91.3C159.2 91.1 159.1 90.9 159 90.7L158 89.9C157.8 89.7 157.5 89.7 157.4 89.9C155.9 91.3 149 96.9 139 89.5C125 79.2 121.4 57.1 121.4 57.1C116.8 30.9 120.8 14.3 130.2 11.9C133.9 11 137.7 13.9 137.7 13.9C140.1 16 142.4 18.5 144.3 21.1C147.1 24.9 149.4 29 151.4 32.9L153.3 36.7C153.4 36.9 153.6 37 153.9 36.9L155.7 36.2C155.9 36.1 156 36 156 35.8L154.9 11.4C154.9 10.8 154.7 9.69999 153.9 9.49999C150.6 8.79999 141 7.39999 141 7.39999C130 6.39999 120.8 9.99999 114 18.9C114 18.9 101.8 34.3 103.1 54.7C104.9 82.9 119.2 106 139 105.8C151.4 105.7 158 93.4 159.1 91.3Z" fill="#897053"/>
<path d="M432.8 6.5C432.9 6.8 433.3 6.9 433.5 6.8C435.2 6 436.7 6 439.2 6.8L444 8C448.3 9 450.5 6.3 451.2 3.3C451.3 3.1 451.1 2.8 450.9 2.7L449.9 2.2C449.7 2.1 449.4 2.1 449.3 2.3C447.6 3.7 446 4.1 443.3 3.3C441.5 2.7 439.6 2.2 437.8 1.7C437.8 1.7 434.2 0.799995 432.1 4.7C432 4.9 432 5.1 432.1 5.2L432.8 6.5Z" fill="#897053"/>
<path d="M340.1 36.8L341 36.3C341.4 36.1 341.6 35.7 341.6 35.3C341.1 27.2 340.8 19 340.3 10.8C340.2 9.3 339 8.2 337.5 8.2H313.4H289.3C287.8 8.2 286.6 9.3 286.5 10.8C286 19 285.7 27.3 285.2 35.5C285.2 35.9 285.4 36.3 285.8 36.5L286.8 37C287.3 37.3 287.9 37.1 288.2 36.5L299.7 12.8C299.8 12.7 299.9 12.6 299.9 12.5C301.5 9.8 305.2 11.8 305.6 14.3C305.8 15.6 305.9 16.9 305.9 18.2C305.9 39 306 43.9 305.9 64.7C305.9 69.8 305.4 90.8 305 95.9C304.7 98.7 303.9 100.4 301.6 101.8C301.1 102.1 301 102.7 301.2 103.2L301.8 104.3C302 104.7 302.4 104.9 302.8 104.9H313.5H324.2C324.6 104.9 325 104.7 325.2 104.3L325.8 103.2C326 102.7 325.9 102.1 325.4 101.8C323.1 100.3 322.3 98.7 322 95.9C321.5 90.8 321.1 69.8 321.1 64.7C321 43.9 321.1 39 321.1 18.2C321.1 16.9 321.2 15.6 321.4 14.3C321.7 11.8 325.5 9.8 327.1 12.5C327.2 12.6 327.3 12.7 327.3 12.8L338.8 36.3C338.9 36.9 339.6 37.1 340.1 36.8Z" fill="#897053"/>
<path d="M369.3 60.6C369.3 58.3 369.6 58.1 372 58.1C377.4 58.2 382.5 59.2 386.5 63.3C388.6 65.5 389.8 67.7 390.9 70.5C391 70.8 391.2 71 391.4 71.2L392.4 71.7C392.9 71.9 393.2 71.3 393.2 70.9V56.6V42.3C393.2 41.9 392.9 41.3 392.4 41.5L391.4 42C391.2 42.2 391 42.4 390.9 42.7C389.9 45.5 388.7 47.7 386.5 49.9C382.5 54 377.5 55 372 55.1C369.7 55.1 369.3 54.9 369.3 52.6C369.3 51.2 369.3 49.9 369.3 48.5C369.3 41 369.3 32.8 369.5 25.2C369.5 25.2 369.4 12.6 377.2 11.1C387.6 9.19999 391.5 20.1 391.5 20.1C394.7 24.7 396.6 31.2 398.5 36.5C398.7 36.9 399.2 37.1 399.6 36.9L400.9 36.2C401.2 36.1 401.4 35.8 401.3 35.4C400.7 27.1 400.2 18.8 399.6 10.5C399.5 9.19999 398.4 8.09999 397.1 8.09999H353.1C352.8 8.09999 352.5 8.29999 352.4 8.49999L351.4 10.4C351.3 10.6 351.3 10.9 351.4 11.2C352.7 13.3 353.2 15.7 353.5 18.3C353.8 21.5 354.1 24.7 354.1 27.9C354.2 43.9 354.2 60.2 354.2 76.2C354.1 80.3 353.9 86.9 353.8 91C353.6 94.8 353.3 98.7 351.2 101.7C351 101.9 351 102.3 351.1 102.5L352 104.2C352.1 104.5 352.4 104.6 352.7 104.6H397.2C398.5 104.6 399.5 103.7 399.7 102.4C400.7 95 401.7 87.5 402.6 80.1C402.6 79.8 402.5 79.5 402.2 79.3L400.8 78.6C400.4 78.4 399.9 78.6 399.7 79C398.1 82.4 396.5 87.1 394.7 90.3C392.3 94.7 388.9 98.7 384 100.6C376.9 103.4 370.1 101.9 369.8 92.9L369.3 60.6Z" fill="#897053"/>
<path d="M272.7 68.4C266.5 58.5 260 48.8 253.6 38.9C250.6 34.3 247.9 29.4 246.8 23.9C246.1 20.7 246 17.5 247.5 14.4C249.6 10.3 253.8 9.4 257.3 12.4C257.3 12.4 264.9 18 271 36.7C271.1 37.1 271.7 37.3 272.1 37.1L273.4 36.4C273.7 36.3 273.8 36 273.8 35.6L272.8 11.6C272.8 10.9 272.3 9.8 271.2 9.5C264.7 8.1 258.8 6.4 251.7 7.4C240.9 9 233.4 17.2 233 28C232.7 34.5 235 40.2 238.4 45.5C244.2 54.5 250.1 63.4 255.9 72.3C258.2 75.9 260.4 79.5 262.3 83.3C264.1 86.9 265.1 90.8 264.4 95C263.2 101.7 256.7 104.5 251.3 100.3C249 98.5 247 96.1 245.2 93.7C240.9 88 238.3 80.2 236.4 74.9C236.3 74.5 235.9 74.3 235.5 74.4C235.2 74.4 234.9 74.5 234.6 74.5C234.2 74.5 233.9 74.9 233.9 75.3L234.8 98.6C234.9 100.9 235.7 102 237.8 102.8C247.2 106.3 256.8 106.6 266.2 103.3C277.1 99.5 281.5 90.3 277.9 79.3C276.8 75.5 274.9 71.8 272.7 68.4Z" fill="#897053"/>
<path d="M470.5 8.79999C470.4 8.49999 470.1 8.39999 469.8 8.39999H458.9C458.6 8.39999 458.3 8.59999 458.2 8.79999L457.4 10.5C457.2 10.8 457.3 11.2 457.6 11.5C459.4 13 461.4 15.2 461.8 17.6C461.8 17.6 462.1 21.4 462.1 26.2V66.1C462.1 66.9 461 67.2 460.6 66.5L426.8 9.69999C426.4 8.89999 425.6 8.29999 424.7 8.29999H413.8C413.4 8.29999 413.1 8.49999 412.9 8.79999L412.2 10.1C412 10.5 412.1 11 412.4 11.3C414.1 12.8 414.9 13.5 415.2 16.2C416 23.3 416.2 32.6 416.2 32.6L416.4 46.8L416.7 86.9C416.6 89.4 416.6 93.5 416.5 95.5C416.2 98.7 414.1 99.7 412 101.6C411.7 101.9 411.7 102.3 411.8 102.6L412.7 104.3C412.8 104.6 413.1 104.7 413.4 104.7H424.3C424.6 104.7 424.9 104.5 425 104.3L425.8 102.6C426 102.3 425.9 101.9 425.6 101.6C423.8 100.1 421.8 97.9 421.4 95.5C421.4 95.5 421.1 91.7 421.1 86.9L420.6 33.7C420.6 32.8 421.8 32.4 422.3 33.2L465.3 105.5C465.4 105.7 465.6 105.8 465.8 105.8H466.5C466.8 105.8 467 105.6 467 105.3L466.4 26.2C466.5 23.7 466.5 19.6 466.6 17.6C466.9 14.4 469 13.4 471.1 11.5C471.4 11.2 471.4 10.8 471.3 10.5L470.5 8.79999Z" fill="#897053"/>
</g>
<path d="M25.9583 25.125H14.8333C12.7853 25.125 11.125 26.7853 11.125 28.8333V39.9583C11.125 42.0064 12.7853 43.6667 14.8333 43.6667H25.9583C28.0064 43.6667 29.6667 42.0064 29.6667 39.9583V28.8333C29.6667 26.7853 28.0064 25.125 25.9583 25.125Z" stroke="#897053" stroke-width="7" stroke-linecap="round" stroke-linejoin="round"/>
<path d="M74.1667 25.125H63.0417C60.9936 25.125 59.3333 26.7853 59.3333 28.8333V39.9583C59.3333 42.0064 60.9936 43.6667 63.0417 43.6667H74.1667C76.2147 43.6667 77.875 42.0064 77.875 39.9583V28.8333C77.875 26.7853 76.2147 25.125 74.1667 25.125Z" stroke="#897053" stroke-width="7" stroke-linecap="round" stroke-linejoin="round"/>
<path d="M25.9583 73.3333H14.8333C12.7853 73.3333 11.125 74.9936 11.125 77.0417V88.1667C11.125 90.2147 12.7853 91.875 14.8333 91.875H25.9583C28.0064 91.875 29.6667 90.2147 29.6667 88.1667V77.0417C29.6667 74.9936 28.0064 73.3333 25.9583 73.3333Z" stroke="#897053" stroke-width="7" stroke-linecap="round" stroke-linejoin="round"/>
<path d="M77.875 73.3333H66.75C64.783 73.3333 62.8965 74.1147 61.5056 75.5056C60.1147 76.8965 59.3333 78.783 59.3333 80.75V91.875" stroke="#897053" stroke-width="7" stroke-linecap="round" stroke-linejoin="round"/>
<path d="M77.875 91.875V91.9117" stroke="#897053" stroke-width="7" stroke-linecap="round" stroke-linejoin="round"/>
<path d="M44.5 39.9583V51.0833C44.5 53.0504 43.7186 54.9368 42.3277 56.3277C40.9368 57.7186 39.0504 58.5 37.0833 58.5H25.9583" stroke="#897053" stroke-width="7" stroke-linecap="round" stroke-linejoin="round"/>
<path d="M11.125 58.5H11.1617" stroke="#897053" stroke-width="7" stroke-linecap="round" stroke-linejoin="round"/>
<path d="M44.5 25.125H44.5367" stroke="#897053" stroke-width="7" stroke-linecap="round" stroke-linejoin="round"/>
<path d="M44.5 73.3333V73.37" stroke="#897053" stroke-width="7" stroke-linecap="round" stroke-linejoin="round"/>
<path d="M59.3333 58.5H63.0417" stroke="#897053" stroke-width="7" stroke-linecap="round" stroke-linejoin="round"/>
<path d="M77.875 58.5V58.5367" stroke="#897053" stroke-width="7" stroke-linecap="round" stroke-linejoin="round"/>
<path d="M44.5 91.875V88.1667" stroke="#897053" stroke-width="7" stroke-linecap="round" stroke-linejoin="round"/>
</g>
<defs>
<clipPath id="clip0_12_2">
<rect width="539" height="107" fill="white"/>
</clipPath>
<clipPath id="clip1_12_2">
<rect width="439.1" height="106.6" fill="white" transform="translate(100 -1)"/>
</clipPath>
</defs>
</svg>
